<mxfile host="app.diagrams.net" agent="Mozilla/5.0 (X11; Linux x86_64) AppleWebKit/537.36 (KHTML, like Gecko) Chrome/127.0.0.0 Safari/537.36" version="24.7.7">
  <diagram name="Page-1" id="n4OJ0eKaftcNymTPvwgV">
    <mxGraphModel dx="1605" dy="932" grid="1" gridSize="10" guides="1" tooltips="1" connect="1" arrows="1" fold="1" page="1" pageScale="1" pageWidth="850" pageHeight="1100" math="0" shadow="0">
      <root>
        <mxCell id="0" />
        <mxCell id="1" parent="0" />
        <mxCell id="9j-7_hHRzapwtvzBKd2U-1" value="VDX-OCV-Estimator" style="whiteSpace=wrap;html=1;aspect=fixed;fillColor=#dae8fc;strokeColor=#6c8ebf;" vertex="1" parent="1">
          <mxGeometry x="360" y="390" width="260" height="260" as="geometry" />
        </mxCell>
        <mxCell id="9j-7_hHRzapwtvzBKd2U-2" value="soc-ocv curves" style="shape=cylinder3;whiteSpace=wrap;html=1;boundedLbl=1;backgroundOutline=1;size=15;fillColor=#e1d5e7;strokeColor=#9673a6;" vertex="1" parent="1">
          <mxGeometry x="380" y="420" width="60" height="80" as="geometry" />
        </mxCell>
        <mxCell id="9j-7_hHRzapwtvzBKd2U-3" value="sections" style="shape=cylinder3;whiteSpace=wrap;html=1;boundedLbl=1;backgroundOutline=1;size=15;fillColor=#d5e8d4;strokeColor=#82b366;" vertex="1" parent="1">
          <mxGeometry x="460" y="30" width="60" height="80" as="geometry" />
        </mxCell>
        <mxCell id="9j-7_hHRzapwtvzBKd2U-11" style="edgeStyle=orthogonalEdgeStyle;rounded=0;orthogonalLoop=1;jettySize=auto;html=1;exitX=0.5;exitY=1;exitDx=0;exitDy=0;exitPerimeter=0;entryX=0.5;entryY=0;entryDx=0;entryDy=0;" edge="1" parent="1" source="9j-7_hHRzapwtvzBKd2U-4" target="9j-7_hHRzapwtvzBKd2U-1">
          <mxGeometry relative="1" as="geometry" />
        </mxCell>
        <mxCell id="9j-7_hHRzapwtvzBKd2U-4" value="Battery Analytics Api" style="aspect=fixed;sketch=0;html=1;dashed=0;whitespace=wrap;verticalLabelPosition=bottom;verticalAlign=top;fillColor=#2875E2;strokeColor=#ffffff;points=[[0.005,0.63,0],[0.1,0.2,0],[0.9,0.2,0],[0.5,0,0],[0.995,0.63,0],[0.72,0.99,0],[0.5,1,0],[0.28,0.99,0]];shape=mxgraph.kubernetes.icon2;prIcon=api" vertex="1" parent="1">
          <mxGeometry x="465" y="190" width="50" height="48" as="geometry" />
        </mxCell>
        <mxCell id="9j-7_hHRzapwtvzBKd2U-9" style="edgeStyle=orthogonalEdgeStyle;rounded=0;orthogonalLoop=1;jettySize=auto;html=1;exitX=0.5;exitY=1;exitDx=0;exitDy=0;exitPerimeter=0;entryX=0.25;entryY=0;entryDx=0;entryDy=0;" edge="1" parent="1" source="9j-7_hHRzapwtvzBKd2U-5" target="9j-7_hHRzapwtvzBKd2U-1">
          <mxGeometry relative="1" as="geometry" />
        </mxCell>
        <mxCell id="9j-7_hHRzapwtvzBKd2U-5" value="cbd" style="shape=cylinder3;whiteSpace=wrap;html=1;boundedLbl=1;backgroundOutline=1;size=15;fillColor=#fff2cc;strokeColor=#d6b656;" vertex="1" parent="1">
          <mxGeometry x="200" y="30" width="60" height="80" as="geometry" />
        </mxCell>
        <mxCell id="9j-7_hHRzapwtvzBKd2U-14" style="edgeStyle=orthogonalEdgeStyle;rounded=0;orthogonalLoop=1;jettySize=auto;html=1;entryX=0;entryY=0.25;entryDx=0;entryDy=0;" edge="1" parent="1" source="9j-7_hHRzapwtvzBKd2U-7" target="9j-7_hHRzapwtvzBKd2U-1">
          <mxGeometry relative="1" as="geometry" />
        </mxCell>
        <mxCell id="9j-7_hHRzapwtvzBKd2U-7" value="input" style="image;aspect=fixed;html=1;points=[];align=center;fontSize=12;image=img/lib/azure2/general/Folder_Blank.svg;" vertex="1" parent="1">
          <mxGeometry x="90" y="428" width="69" height="56.00000000000001" as="geometry" />
        </mxCell>
        <mxCell id="9j-7_hHRzapwtvzBKd2U-8" value="output" style="image;aspect=fixed;html=1;points=[];align=center;fontSize=12;image=img/lib/azure2/general/Folder_Blank.svg;" vertex="1" parent="1">
          <mxGeometry x="90" y="554" width="69" height="56.00000000000001" as="geometry" />
        </mxCell>
        <mxCell id="9j-7_hHRzapwtvzBKd2U-10" style="edgeStyle=orthogonalEdgeStyle;rounded=0;orthogonalLoop=1;jettySize=auto;html=1;exitX=0.5;exitY=1;exitDx=0;exitDy=0;exitPerimeter=0;entryX=0.5;entryY=0;entryDx=0;entryDy=0;entryPerimeter=0;" edge="1" parent="1" source="9j-7_hHRzapwtvzBKd2U-3" target="9j-7_hHRzapwtvzBKd2U-4">
          <mxGeometry relative="1" as="geometry" />
        </mxCell>
        <mxCell id="9j-7_hHRzapwtvzBKd2U-15" style="edgeStyle=orthogonalEdgeStyle;rounded=0;orthogonalLoop=1;jettySize=auto;html=1;exitX=0;exitY=0.75;exitDx=0;exitDy=0;entryX=1.014;entryY=0.536;entryDx=0;entryDy=0;entryPerimeter=0;" edge="1" parent="1" source="9j-7_hHRzapwtvzBKd2U-1" target="9j-7_hHRzapwtvzBKd2U-8">
          <mxGeometry relative="1" as="geometry" />
        </mxCell>
      </root>
    </mxGraphModel>
  </diagram>
</mxfile>
